<svg xmlns="http://www.w3.org/2000/svg" viewBox="0 0 21.82 30.43"><defs><style>.cls-1,.cls-2{fill:#00a19a;}.cls-1,.cls-2,.cls-3,.cls-4,.cls-5{stroke:#1d1d1b;}.cls-1,.cls-4{stroke-miterlimit:10;}.cls-1,.cls-2,.cls-3,.cls-4{stroke-width:1.27px;}.cls-2,.cls-3,.cls-5{stroke-linecap:round;stroke-linejoin:round;}.cls-3,.cls-4,.cls-5{fill:none;}.cls-5{stroke-width:0.84px;}</style></defs><title>ofisnie_kresla</title><g id="Слой_2" data-name="Слой 2"><g id="Слой_1-2" data-name="Слой 1"><circle class="cls-1" cx="19.74" cy="15.3" r="1.45"/><circle class="cls-1" cx="2.08" cy="14.95" r="1.45"/><path class="cls-2" d="M6.14,4.67a4,4,0,0,1,.22-.34,5.68,5.68,0,0,1,4.52-2.48c3.08,0,4.8,3.06,4.95,3.34C17.37,8,16.93,12,14.62,15.11a4.11,4.11,0,0,0-3.85-4A4.09,4.09,0,0,0,7,14.92C4.76,11.45,4.52,7.31,6.14,4.67Z"/><path class="cls-3" d="M2.08,15.17a3.2,3.2,0,0,1,3.06,1.3,3.22,3.22,0,0,1-.84,4.46H17.08a3.18,3.18,0,0,1-.7-4,3.15,3.15,0,0,1,3.36-1.39"/><line class="cls-3" x1="10.76" y1="22.68" x2="10.76" y2="29.8"/><line class="cls-3" x1="10.76" y1="26.69" x2="7.49" y2="29.8"/><line class="cls-3" x1="10.76" y1="26.69" x2="14.08" y2="29.8"/><path class="cls-4" d="M4.3,20.93a14.05,14.05,0,0,1,2.56-1.77,7.66,7.66,0,0,1,4-1.34,7.35,7.35,0,0,1,3.64,1.39,12.94,12.94,0,0,1,2.27,1.72"/><path class="cls-5" d="M4.12,5.39A7.23,7.23,0,0,1,7,1.57a7.11,7.11,0,0,1,7.57-.11A7.11,7.11,0,0,1,17.4,5.15"/><path class="cls-5" d="M17.82,6.19a9.56,9.56,0,0,1,.27,1.25,8.65,8.65,0,0,1,.07,1.19"/></g></g></svg>