<svg xmlns="http://www.w3.org/2000/svg" viewBox="0 0 49 37.85"><defs><style>.cls-1{fill:#00a79d;stroke-width:0.75px;}.cls-1,.cls-2,.cls-3,.cls-4{stroke:#231f20;}.cls-1,.cls-3,.cls-4{stroke-linecap:round;stroke-linejoin:round;}.cls-2,.cls-3{fill:#fff;}.cls-2{stroke-miterlimit:10;}.cls-4{fill:none;}</style></defs><title>controller</title><g id="Layer_2" data-name="Layer 2"><g id="Layer_1-2" data-name="Layer 1"><rect class="cls-1" x="6.18" y="14.15" width="8.99" height="4.91" rx="2.14" ry="2.14"/><rect class="cls-1" x="34.14" y="14.15" width="8.99" height="4.91" rx="2.14" ry="2.14"/><path class="cls-2" d="M45.9,34.06a10.08,10.08,0,0,0,1.84-3.24,12.64,12.64,0,0,0,.42-1.25,10.5,10.5,0,0,0,.34-2.64,10.32,10.32,0,0,0-19.45-4.82H20A10.32,10.32,0,1,0,5.94,36c5.43,2.49,10.25.74,13-2.72H30.09A13.53,13.53,0,0,0,31.71,35a10,10,0,0,0,1.9,1.35,8.76,8.76,0,0,0,2.78.93,9.91,9.91,0,0,0,2.43.08,11.6,11.6,0,0,0,2.92-.58,10.58,10.58,0,0,0,2.13-1A9,9,0,0,0,45.9,34.06Z"/><rect class="cls-1" x="25.57" y="28.87" width="4.26" height="1.31"/><rect class="cls-1" x="19.38" y="28.87" width="4.26" height="1.31"/><path class="cls-1" d="M15.71,25.75H11.82V21.87a1.15,1.15,0,1,0-2.29,0v3.88H5.65a1.15,1.15,0,1,0,0,2.29H9.53v3.88a1.15,1.15,0,1,0,2.29,0V28h3.89a1.15,1.15,0,0,0,0-2.29Z"/><circle class="cls-1" cx="41.47" cy="22.53" r="1.65"/><circle class="cls-1" cx="40.65" cy="28.87" r="1.65"/><circle class="cls-1" cx="36.98" cy="31.36" r="1.65"/><circle class="cls-1" cx="44.31" cy="26.16" r="1.65"/><circle class="cls-1" cx="37.86" cy="25.24" r="1.65"/><circle class="cls-1" cx="34.14" cy="27.81" r="1.65"/><path class="cls-3" d="M24.5,22.11a5.67,5.67,0,0,0,1.07-4.34c-.48-1.84-2.19-2.52-1.93-3.62.32-1.39,3.26-1.34,3.37-2.4s-3.37-1.86-3.37-3.3,3.29-1.9,3.37-3.3c0-.72-.78-1.76-4.45-3.16"/><line class="cls-4" x1="20.81" y1="1.29" x2="18.92" y2="0.5"/></g></g></svg>