<svg xmlns="http://www.w3.org/2000/svg" viewBox="0 0 44.2 44.01"><defs><style>.cls-1{fill:#00a19a;}.cls-1,.cls-4{stroke:#1d1d1b;stroke-linecap:round;stroke-linejoin:round;}.cls-2{fill:#fff;}.cls-3{fill:#1d1d1b;}.cls-4{fill:none;}</style></defs><title>processor</title><g id="Слой_2" data-name="Слой 2"><g id="Слой_1-2" data-name="Слой 1"><rect class="cls-1" x="12.18" y="12.1" width="19.75" height="19.75"/><path class="cls-2" d="M17.62,16.84h8.87a.7.7,0,0,1,.7.7v8.87a.7.7,0,0,1-.7.7H17.62a.71.71,0,0,1-.71-.71V17.54A.7.7,0,0,1,17.62,16.84Z"/><path class="cls-3" d="M26.49,17.34a.2.2,0,0,1,.2.2v8.87a.2.2,0,0,1-.2.2H17.62a.2.2,0,0,1-.2-.2V17.54a.2.2,0,0,1,.2-.2h8.87m0-1H17.62a1.2,1.2,0,0,0-1.2,1.2v8.87a1.2,1.2,0,0,0,1.2,1.2h8.87a1.2,1.2,0,0,0,1.2-1.2V17.54a1.2,1.2,0,0,0-1.2-1.2Z"/><polyline class="cls-4" points="15.53 13.38 13.51 13.38 13.51 15.3"/><polyline class="cls-4" points="30.46 15.35 30.46 13.33 28.53 13.33"/><polyline class="cls-4" points="28.48 30.52 30.5 30.52 30.5 28.6"/><polyline class="cls-4" points="13.56 28.55 13.56 30.57 15.48 30.57"/><line class="cls-4" x1="15.57" y1="10.89" x2="15.57" y2="6.22"/><line class="cls-4" x1="19.78" y1="10.89" x2="19.78" y2="3.2"/><line class="cls-4" x1="24.29" y1="10.89" x2="24.29" y2="4.84"/><line class="cls-4" x1="28.53" y1="10.89" x2="28.53" y2="7.33"/><circle class="cls-4" cx="28.53" cy="6.35" r="0.99"/><line class="cls-4" x1="24.29" y1="4.84" x2="26.46" y2="2.67"/><circle class="cls-1" cx="27.41" cy="1.72" r="1.22"/><circle class="cls-4" cx="19.78" cy="2.33" r="0.87"/><line class="cls-4" x1="15.57" y1="6.22" x2="13.55" y2="4.19"/><circle class="cls-4" cx="12.81" cy="3.46" r="0.95"/><line class="cls-4" x1="12.18" y1="10.89" x2="31.93" y2="10.89"/><line class="cls-4" x1="33.31" y1="15.66" x2="37.98" y2="15.66"/><line class="cls-4" x1="33.31" y1="19.86" x2="41" y2="19.86"/><line class="cls-4" x1="33.31" y1="24.37" x2="39.36" y2="24.37"/><line class="cls-4" x1="33.31" y1="28.62" x2="36.86" y2="28.62"/><circle class="cls-4" cx="37.85" cy="28.62" r="0.99"/><line class="cls-4" x1="39.36" y1="24.37" x2="41.53" y2="26.55"/><circle class="cls-4" cx="42.48" cy="27.49" r="1.22"/><circle class="cls-4" cx="41.86" cy="19.86" r="0.87"/><line class="cls-4" x1="37.98" y1="15.66" x2="40" y2="13.63"/><circle class="cls-1" cx="40.74" cy="12.89" r="0.95"/><line class="cls-4" x1="33.31" y1="12.1" x2="33.31" y2="31.85"/><line class="cls-4" x1="28.29" y1="33.12" x2="28.29" y2="37.79"/><line class="cls-4" x1="24.09" y1="33.11" x2="24.09" y2="40.81"/><line class="cls-4" x1="19.57" y1="33.12" x2="19.57" y2="39.17"/><line class="cls-4" x1="15.33" y1="33.12" x2="15.33" y2="36.67"/><circle class="cls-1" cx="15.33" cy="37.66" r="0.99"/><line class="cls-4" x1="19.57" y1="39.17" x2="17.4" y2="41.34"/><circle class="cls-4" cx="16.45" cy="42.29" r="1.22"/><circle class="cls-4" cx="24.09" cy="41.67" r="0.87"/><line class="cls-4" x1="28.29" y1="37.79" x2="30.31" y2="39.81"/><circle class="cls-4" cx="31.05" cy="40.55" r="0.95"/><line class="cls-4" x1="31.85" y1="33.11" x2="12.1" y2="33.11"/><line class="cls-4" x1="10.89" y1="28.29" x2="6.22" y2="28.29"/><line class="cls-4" x1="10.89" y1="24.09" x2="3.2" y2="24.09"/><line class="cls-4" x1="10.89" y1="19.58" x2="4.84" y2="19.58"/><line class="cls-4" x1="10.89" y1="15.33" x2="7.33" y2="15.33"/><circle class="cls-4" cx="6.35" cy="15.33" r="0.99"/><line class="cls-4" x1="4.84" y1="19.58" x2="2.67" y2="17.4"/><circle class="cls-4" cx="1.72" cy="16.45" r="1.22"/><circle class="cls-1" cx="2.33" cy="24.09" r="0.87"/><line class="cls-4" x1="6.22" y1="28.29" x2="4.19" y2="30.32"/><circle class="cls-4" cx="3.46" cy="31.06" r="0.95"/><line class="cls-4" x1="10.89" y1="31.85" x2="10.89" y2="12.26"/><line class="cls-4" x1="13.51" y1="16.7" x2="13.51" y2="18.64"/><line class="cls-4" x1="30.5" y1="25.31" x2="30.5" y2="27.24"/></g></g></svg>