<svg id="Слой_1" data-name="Слой 1" xmlns="http://www.w3.org/2000/svg" viewBox="0 0 30.88 27.6"><defs><style>.cls-1{fill:#00a19a;stroke-width:0.75px;}.cls-1,.cls-2,.cls-3,.cls-4,.cls-5,.cls-6{stroke:#1d1d1b;}.cls-1,.cls-5,.cls-6{stroke-linecap:round;}.cls-1,.cls-4,.cls-5,.cls-6{stroke-linejoin:round;}.cls-2,.cls-3,.cls-4{fill:#fff;}.cls-2,.cls-3{stroke-miterlimit:10;}.cls-2,.cls-5{stroke-width:0.5px;}.cls-3,.cls-4,.cls-6{stroke-width:0.25px;}.cls-5{fill:none;}.cls-6{fill:#1d1d1b;}</style></defs><title>electronica</title><rect class="cls-1" x="12.7" y="16.39" width="17.36" height="25.92" transform="translate(-16.07 34.4) rotate(-89.77)"/><rect class="cls-2" x="13.26" y="19.11" width="13.85" height="20.46" transform="translate(-17.25 33.2) rotate(-89.77)"/><ellipse class="cls-3" cx="9.24" cy="29.3" rx="0.27" ry="0.31" transform="translate(-28.1 22.21) rotate(-89.77)"/><rect class="cls-4" x="31.21" y="28.81" width="1.05" height="1.17" transform="translate(-5.79 44.8) rotate(-89.77)"/><rect class="cls-1" x="3.57" y="8.79" width="9.8" height="18.43" rx="0.75" ry="0.75"/><ellipse class="cls-2" cx="8.47" cy="25.9" rx="0.56" ry="0.61"/><rect class="cls-2" x="3.68" y="10.3" width="9.56" height="14.28"/><rect class="cls-1" x="18.04" y="0.38" width="12.47" height="18.56"/><rect class="cls-2" x="19.3" y="2.12" width="9.93" height="13.7"/><rect class="cls-3" x="22.44" y="1.2" width="3.66" height="0.3"/><circle class="cls-2" cx="24.27" cy="17.21" r="0.63"/><line class="cls-5" x1="20.55" y1="3.36" x2="28.15" y2="3.36"/><line class="cls-5" x1="20.55" y1="5.65" x2="28.15" y2="5.65"/><line class="cls-5" x1="20.55" y1="8.04" x2="28.15" y2="8.04"/><line class="cls-5" x1="20.55" y1="10.53" x2="28.15" y2="10.53"/><line class="cls-5" x1="20.55" y1="12.83" x2="28.15" y2="12.83"/><path class="cls-5" d="M14.41,32.75a2.9,2.9,0,0,1,4.1,0" transform="translate(-8 -16.21)"/><path class="cls-5" d="M15.11,33.85a1.9,1.9,0,0,1,2.69,0" transform="translate(-8 -16.21)"/><path class="cls-5" d="M15.64,35.06a1.16,1.16,0,0,1,1.64,0" transform="translate(-8 -16.21)"/><circle class="cls-6" cx="8.47" cy="19.73" r="0.32"/><line class="cls-5" x1="18.04" y1="23.21" x2="27.56" y2="23.21"/><line class="cls-5" x1="27.56" y1="20.45" x2="27.56" y2="23.21"/><line class="cls-5" x1="17" y1="23.21" x2="15.7" y2="23.21"/><line class="cls-5" x1="5.66" y1="3.36" x2="7.16" y2="3.36"/><line class="cls-5" x1="8.47" y1="3.36" x2="17" y2="3.36"/><line class="cls-5" x1="17" y1="1.2" x2="17" y2="3.36"/></svg>