<svg xmlns="http://www.w3.org/2000/svg" viewBox="0 0 46.38 29.1"><defs><style>.cls-1{fill:#fff;}.cls-1,.cls-2,.cls-3,.cls-4,.cls-5{stroke:#231f20;stroke-linecap:round;stroke-linejoin:round;}.cls-2,.cls-3{fill:#00a79d;}.cls-3,.cls-5{stroke-width:0.75px;}.cls-4,.cls-5{fill:none;}</style></defs><title>videokarta</title><g id="Layer_2" data-name="Layer 2"><g id="Layer_1-2" data-name="Layer 1"><rect class="cls-1" x="4.29" y="3.66" width="40.27" height="22.62"/><rect class="cls-2" x="6.43" y="26.28" width="11.58" height="2.09"/><rect class="cls-2" x="30.84" y="26.28" width="11.58" height="2.09"/><rect class="cls-3" x="12.22" y="11.03" width="1.12" height="7.88"/><rect class="cls-3" x="22.26" y="11.03" width="1.12" height="7.88"/><rect class="cls-3" x="15.56" y="7.86" width="1.12" height="14.23"/><rect class="cls-3" x="18.91" y="7.86" width="1.12" height="14.23"/><circle class="cls-2" cx="34.1" cy="14.97" r="7.63"/><path class="cls-1" d="M35.84,15a1.75,1.75,0,0,1-3.49,0,1.72,1.72,0,0,1,.58-1.29A1.74,1.74,0,0,1,35.84,15Z"/><path class="cls-4" d="M33,13.23a2.93,2.93,0,0,0-.75-1.62,3,3,0,0,0-2-.94"/><path class="cls-4" d="M32,14.76a2.95,2.95,0,0,0-3.58,1.15"/><path class="cls-4" d="M33.38,16.56A2.91,2.91,0,0,0,32.31,18a3.05,3.05,0,0,0,.1,2.21"/><path class="cls-4" d="M36,15a3,3,0,0,0,1.77-.28,3,3,0,0,0,1.47-1.65"/><path class="cls-4" d="M35.12,16.56a3,3,0,0,0,1,1.47,3,3,0,0,0,2.12.61"/><path class="cls-4" d="M35.12,13.23a2.94,2.94,0,0,0,.08-3.77"/><circle class="cls-1" cx="6.47" cy="5.83" r="0.51"/><circle class="cls-1" cx="42.23" cy="5.83" r="0.51"/><circle class="cls-1" cx="6.47" cy="24.11" r="0.51"/><circle class="cls-1" cx="42.23" cy="24.11" r="0.51"/><polygon class="cls-2" points="2.62 0.5 2.62 3.89 0.5 3.89 0.5 8.92 2.62 8.92 2.62 11.25 0.5 11.25 0.5 26.5 2.62 26.5 2.62 28.6 4.29 28.6 4.29 0.5 2.62 0.5"/><line class="cls-5" x1="35.84" y1="2.23" x2="46" y2="2.23"/><line class="cls-5" x1="46" y1="9.46" x2="46" y2="2.23"/><line class="cls-5" x1="46" y1="12.41" x2="46" y2="10.67"/></g></g></svg>