<svg xmlns="http://www.w3.org/2000/svg" viewBox="0 0 31.44 23.24"><defs><style>.cls-1,.cls-2{fill:#fff;}.cls-1,.cls-2,.cls-3,.cls-4{stroke:#1d1d1b;}.cls-1,.cls-3,.cls-4{stroke-linecap:round;stroke-linejoin:round;}.cls-1{stroke-width:0.75px;}.cls-2{stroke-miterlimit:10;}.cls-2,.cls-4{stroke-width:0.5px;}.cls-3{fill:#00a19a;stroke-width:0.25px;}.cls-4{fill:none;}</style></defs><title>klaviatyri</title><g id="Слой_2" data-name="Слой 2"><g id="Слой_1-2" data-name="Слой 1"><rect class="cls-1" x="2.62" y="7.12" width="27.3" height="11.65" transform="translate(-3.31 5.93) rotate(-18.8)"/><rect class="cls-2" x="3.74" y="8.36" width="25.05" height="9.2" transform="translate(-3.31 5.93) rotate(-18.8)"/><rect class="cls-3" x="13.57" y="13.17" width="2.31" height="2.31" rx="0.51" ry="0.51" transform="translate(-3.83 5.51) rotate(-18.8)"/><rect class="cls-3" x="10.59" y="10.87" width="2.31" height="2.31" rx="0.53" ry="0.53" transform="translate(-3.25 4.42) rotate(-18.8)"/><rect class="cls-3" x="14.47" y="9.54" width="2.31" height="2.31" rx="0.53" ry="0.53" transform="translate(-2.61 5.6) rotate(-18.8)"/><rect class="cls-3" x="9.61" y="14.52" width="2.31" height="2.31" rx="0.53" ry="0.53" transform="translate(-4.48 4.3) rotate(-18.8)"/><rect class="cls-3" x="6.61" y="12.22" width="2.31" height="2.31" rx="0.53" ry="0.53" transform="translate(-3.89 3.22) rotate(-18.8)"/><rect class="cls-3" x="17.47" y="11.85" width="2.31" height="2.31" rx="0.53" ry="0.53" transform="translate(-3.2 6.69) rotate(-18.8)"/><rect class="cls-3" x="21.35" y="10.53" width="2.31" height="2.31" rx="0.53" ry="0.53" transform="translate(-2.56 7.87) rotate(-18.8)"/><rect class="cls-3" x="22.13" y="6.94" width="2.31" height="2.31" rx="0.53" ry="0.53" transform="translate(-1.37 7.93) rotate(-18.8)"/><rect class="cls-3" x="18.35" y="8.22" width="2.31" height="2.31" rx="0.53" ry="0.53" transform="translate(-1.98 6.78) rotate(-18.8)"/><rect class="cls-3" x="13.35" y="15.31" width="8.62" height="0.99" transform="translate(-4.15 6.53) rotate(-18.8)"/><path class="cls-4" d="M13.88,7.5c-2.07-.92-2.61-1.74-2.62-2.36,0-1,1.35-1.54,1.34-2.66,0-.91-.94-1.68-1.87-2.23"/><polyline class="cls-4" points="7.45 8.73 0.25 11.22 1.26 14.15"/><line class="cls-4" x1="8.25" y1="8.43" x2="9.97" y2="7.84"/></g></g></svg>