<svg xmlns="http://www.w3.org/2000/svg" viewBox="0 0 49.63 32.13"><defs><style>.cls-1,.cls-3{fill:#fff;}.cls-1,.cls-2,.cls-5{stroke:#231f20;stroke-linecap:round;stroke-linejoin:round;}.cls-2,.cls-4{fill:#00a79d;}.cls-5{fill:none;}</style></defs><title>noytbyc</title><g id="Слой_2" data-name="Слой 2"><g id="Слой_1-2" data-name="Слой 1"><rect class="cls-1" x="5.08" y="2.26" width="39.47" height="22.99" rx="0.72" ry="0.72"/><path class="cls-2" d="M30.07,27.26v1.06H19.55V27.26H.5c0,1.44.7,2.6,1.56,2.6h45.5c.87,0,1.57-1.16,1.57-2.6Z"/><ellipse class="cls-3" cx="25.29" cy="2.26" rx="0.47" ry="0.46"/><path class="cls-3" d="M25.29,1.81a.46.46,0,0,0-.47.45.47.47,0,0,0,.94,0,.46.46,0,0,0-.47-.45Z"/><polygon class="cls-3" points="5.19 6.72 4.96 6.72 4.96 9.69 5.19 9.69 5.19 6.72 5.19 6.72"/><path class="cls-4" d="M42.7,3.89V23.62c-1.72,0-33.86,0-33.86,0L42.7,3.89"/><line class="cls-5" x1="5.4" y1="25.05" x2="44.08" y2="25.07"/><polygon class="cls-3" points="44.66 6.72 44.44 6.72 44.44 9.69 44.66 9.69 44.66 6.72 44.66 6.72"/><path class="cls-5" d="M14.91.5H3.19V14.14"/><line class="cls-5" x1="16.59" y1="0.5" x2="19.04" y2="0.5"/><line class="cls-5" x1="41.98" y1="31.63" x2="44.44" y2="31.63"/><line class="cls-5" x1="24.74" y1="31.63" x2="40.32" y2="31.63"/></g></g></svg>