<svg xmlns="http://www.w3.org/2000/svg" viewBox="0 0 33.58 34.19"><defs><style>.cls-1,.cls-4,.cls-8{fill:#fff;}.cls-1,.cls-2,.cls-3,.cls-7,.cls-8{stroke:#1d1d1b;stroke-linecap:round;stroke-linejoin:round;}.cls-2,.cls-6{fill:#00a19a;}.cls-3,.cls-7{fill:none;}.cls-5{fill:#1d1d1b;}.cls-7,.cls-8{stroke-width:0.75px;}</style></defs><title>materinskay_plata</title><g id="Слой_2" data-name="Слой 2"><g id="Слой_1-2" data-name="Слой 1"><rect class="cls-1" x="1.8" y="2.52" width="29.77" height="29.77"/><rect class="cls-2" x="18.47" y="0.5" width="10.04" height="2.02"/><line class="cls-3" x1="23.49" y1="0.5" x2="23.49" y2="2.52"/><line class="cls-3" x1="26.02" y1="0.5" x2="26.02" y2="2.52"/><line class="cls-3" x1="21" y1="0.5" x2="21" y2="2.52"/><line class="cls-3" x1="16.68" y1="0.5" x2="16.68" y2="2.52"/><line class="cls-3" x1="14.84" y1="0.5" x2="14.84" y2="2.52"/><line class="cls-3" x1="30.19" y1="0.5" x2="30.19" y2="2.52"/><circle class="cls-3" cx="3.21" cy="3.91" r="0.21"/><circle class="cls-3" cx="30.22" cy="3.91" r="0.21"/><circle class="cls-3" cx="3.18" cy="30.85" r="0.21"/><circle class="cls-3" cx="30.22" cy="30.85" r="0.21"/><rect class="cls-3" x="5.74" y="29.54" width="1.95" height="2.75"/><rect class="cls-2" x="8.79" y="29.54" width="1.95" height="2.75"/><rect class="cls-3" x="11.86" y="29.54" width="1.95" height="2.75"/><rect class="cls-3" x="19.22" y="5.43" width="8.54" height="8.54"/><line class="cls-3" x1="21.81" y1="11.39" x2="25.18" y2="8.02"/><line class="cls-3" x1="20.29" y1="6.5" x2="21.92" y2="8.13"/><line class="cls-3" x1="26.61" y1="12.82" x2="24.98" y2="11.19"/><circle class="cls-2" cx="25.6" cy="7.6" r="0.53"/><circle class="cls-2" cx="24.98" cy="11.19" r="0.53"/><circle class="cls-2" cx="21.92" cy="8.13" r="0.53"/><circle class="cls-2" cx="21.47" cy="11.72" r="0.53"/><path class="cls-4" d="M16.32,24.69H29.4a.38.38,0,0,1,.38.38v.83a.37.37,0,0,1-.37.37H16.32a.38.38,0,0,1-.37-.37v-.83A.38.38,0,0,1,16.32,24.69Z"/><path class="cls-5" d="M29.4,25.06v.83H16.32v-.83H29.4m0-.75H16.32a.76.76,0,0,0-.75.75v.83a.75.75,0,0,0,.75.75H29.4a.75.75,0,0,0,.75-.75v-.83a.76.76,0,0,0-.75-.75Z"/><rect class="cls-6" x="15.95" y="27.34" width="13.82" height="1.58" rx="0.38" ry="0.38"/><path class="cls-5" d="M29.4,27.72v.83H16.32v-.83H29.4m0-.75H16.32a.75.75,0,0,0-.75.75v.83a.76.76,0,0,0,.75.75H29.4a.76.76,0,0,0,.75-.75v-.83A.75.75,0,0,0,29.4,27Z"/><line class="cls-7" x1="20.56" y1="25.06" x2="20.56" y2="25.89"/><line class="cls-7" x1="20.56" y1="27.72" x2="20.56" y2="28.68"/><rect class="cls-2" x="5.74" y="18.89" width="6.45" height="5.69"/><rect class="cls-2" x="14.52" y="8.13" width="3.4" height="6.71"/><path class="cls-8" d="M12.19,20.8h1.62l1.68-4.33V10.8h1.43l0,5.67s-2.23,5.74-2.23,5.74H12.19"/><line class="cls-7" x1="12.19" y1="20.8" x2="12.19" y2="22.21"/><line class="cls-3" x1="14.14" y1="8.66" x2="12.76" y2="8.66"/><line class="cls-3" x1="14.14" y1="9.77" x2="12.76" y2="9.77"/><line class="cls-3" x1="14.14" y1="10.88" x2="12.76" y2="10.88"/><line class="cls-3" x1="14.14" y1="11.98" x2="12.76" y2="11.98"/><line class="cls-3" x1="14.14" y1="13.09" x2="12.76" y2="13.09"/><line class="cls-3" x1="14.14" y1="14.2" x2="12.76" y2="14.2"/><rect class="cls-6" x="4.37" y="2.6" width="1.65" height="9.62" rx="0.5" ry="0.5"/><path class="cls-5" d="M5.52,3.1v8.62H4.87V3.1h.65m0-1H4.87a1,1,0,0,0-1,1v8.62a1,1,0,0,0,1,1h.65a1,1,0,0,0,1-1V3.1a1,1,0,0,0-1-1Z"/><path class="cls-5" d="M9,3.1V15H8.31V3.1H9m0-1H8.31a1,1,0,0,0-1,1V15a1,1,0,0,0,1,1H9a1,1,0,0,0,1-1V3.1a1,1,0,0,0-1-1Z"/><line class="cls-3" x1="5.2" y1="12.45" x2="5.2" y2="13.97"/><line class="cls-3" x1="8.64" y1="15.64" x2="8.64" y2="17.12"/><path class="cls-5" d="M3.76,15.64a.54.54,0,1,0,.53.53.54.54,0,0,0-.53-.53Z"/><path class="cls-5" d="M23.33,19.42a.54.54,0,1,0,.54.53.54.54,0,0,0-.54-.53Z"/><path class="cls-5" d="M25.77,21a.54.54,0,1,0,.53.54.54.54,0,0,0-.53-.54Z"/><path class="cls-5" d="M27.93,19.42a.54.54,0,1,0,.54.53.53.53,0,0,0-.54-.53Z"/><path class="cls-5" d="M20.94,21a.54.54,0,1,0,0,1.07.54.54,0,1,0,0-1.07Z"/><path class="cls-5" d="M18.47,19.42A.54.54,0,1,0,19,20a.54.54,0,0,0-.54-.53Z"/><path class="cls-5" d="M12.19,3.91a.54.54,0,1,0,.53.53.54.54,0,0,0-.53-.53Z"/><path class="cls-5" d="M14.55,5.11a.54.54,0,1,0,.54.54.54.54,0,0,0-.54-.54Z"/><path class="cls-5" d="M16.68,3.91a.54.54,0,1,0,.54.53.53.53,0,0,0-.54-.53Z"/><path class="cls-5" d="M3.76,17.41a.54.54,0,1,0,.53.53.54.54,0,0,0-.53-.53Z"/><path class="cls-5" d="M11.08,19.6a.38.38,0,1,0,.38.38.38.38,0,0,0-.38-.38Z"/><path class="cls-5" d="M6.78,23.23a.38.38,0,1,0,.38.38.38.38,0,0,0-.38-.38Z"/><polyline class="cls-3" points="8.99 1.22 0.5 1.24 0.51 7.01"/><line class="cls-3" x1="0.5" y1="9.78" x2="0.5" y2="8.34"/><line class="cls-3" x1="33.08" y1="25.1" x2="33.08" y2="23.66"/><path class="cls-3" d="M23.73,33.69H33V26.4"/></g></g></svg>