<svg xmlns="http://www.w3.org/2000/svg" viewBox="0 0 20.27 26.8"><defs><style>.cls-1,.cls-2,.cls-4{fill:#fff;}.cls-1,.cls-2,.cls-3,.cls-4,.cls-5{stroke:#1d1d1b;stroke-linecap:round;stroke-linejoin:round;}.cls-2{stroke-width:0.89px;}.cls-3{fill:#00a19a;}.cls-3,.cls-4{stroke-width:0.45px;}.cls-5{fill:none;stroke-width:0.75px;}</style></defs><title>muchki</title><g id="Слой_2" data-name="Слой 2"><g id="Слой_1-2" data-name="Слой 1"><rect class="cls-1" x="1.67" y="7.39" width="12.68" height="19.14" rx="6.34" ry="6.34" transform="translate(6.71 -1.75) rotate(21.31)"/><path class="cls-2" d="M3.08,12.14a20.75,20.75,0,0,0,5.45,3.2,20.62,20.62,0,0,0,6.35,1.4"/><ellipse class="cls-3" cx="10.08" cy="11.62" rx="2.57" ry="1.01" transform="translate(-4.41 16.79) rotate(-68.69)"/><line class="cls-4" x1="10.48" y1="10.66" x2="9.73" y2="12.6"/><path class="cls-5" d="M11.69,8.27c-.59-1.62-.52-2.58-.06-3.09.86-1,3-.16,3.35-1,.3-.63-.83-1.38-.57-2.44A2.15,2.15,0,0,1,15.54.51a3.61,3.61,0,0,1,2.62.25c1.59.9,2,3.17,1.55,4.69-.39,1.28-1.15,1.17-2,3.06A6.53,6.53,0,0,0,17,11.35c0,1.25.45,1.49.4,2.79a9.53,9.53,0,0,1-.5,2.25,25.66,25.66,0,0,1-.9,2.54"/><path class="cls-5" d="M15.58,20.11,14.83,22"/></g></g></svg>