<svg xmlns="http://www.w3.org/2000/svg" viewBox="0 0 48.97 23.09"><defs><style>.cls-1{fill:#fff;}.cls-1,.cls-2,.cls-4{stroke:#1d1d1b;stroke-linecap:round;stroke-linejoin:round;}.cls-2{fill:#00a19a;}.cls-3{fill:#1d1d1b;}.cls-4{fill:none;}</style></defs><title>operativnay_pamayt</title><g id="Layer_2" data-name="Layer 2"><g id="Слой_1" data-name="Слой 1"><path class="cls-1" d="M47,5.49V1.91h-45V5.49a2.63,2.63,0,0,1,0,5.25v2.11a2.62,2.62,0,0,1,0,5.24v3.07H18.69a2.88,2.88,0,1,1,5.75,0H47V18.09a2.62,2.62,0,1,1,0-5.24V10.74a2.63,2.63,0,0,1,0-5.25Z"/><rect class="cls-1" x="9.58" y="17.5" width="2" height="3.66"/><rect class="cls-2" x="5.24" y="17.5" width="2" height="3.66"/><rect class="cls-2" x="13.91" y="17.5" width="2" height="3.66"/><rect class="cls-1" x="27.77" y="17.5" width="2" height="3.66"/><rect class="cls-2" x="32.53" y="17.5" width="2" height="3.66"/><rect class="cls-1" x="37.23" y="17.5" width="2" height="3.66"/><rect class="cls-2" x="41.64" y="17.5" width="2" height="3.66"/><path class="cls-3" d="M3.63,3a.66.66,0,1,0,.66.66A.66.66,0,0,0,3.63,3Z"/><path class="cls-3" d="M45.32,19a.66.66,0,1,0,.67.66.67.67,0,0,0-.67-.66Z"/><rect class="cls-2" x="15.38" y="4.27" width="6.53" height="10.06"/><rect class="cls-2" x="6.31" y="4.27" width="6.53" height="10.06"/><rect class="cls-2" x="35.96" y="4.27" width="6.53" height="10.06"/><rect class="cls-1" x="8.12" y="7.05" width="2.92" height="4.5"/><rect class="cls-1" x="17.19" y="7.05" width="2.92" height="4.5"/><rect class="cls-1" x="37.77" y="7.05" width="2.92" height="4.5"/><rect class="cls-2" x="27" y="4.27" width="6.53" height="10.06"/><rect class="cls-1" x="28.81" y="7.05" width="2.92" height="4.5"/><line class="cls-4" x1="10" y1="21.16" x2="15.25" y2="21.16"/><polyline class="cls-4" points="34.07 0.5 48.47 0.5 48.47 5.59"/><line class="cls-4" x1="32.26" y1="0.5" x2="29.66" y2="0.5"/><path class="cls-4" d="M14.91,22.59H.5V18.22"/><line class="cls-4" x1="16.6" y1="22.59" x2="19.2" y2="22.59"/></g></g></svg>